<?xml version="1.0" encoding="UTF-8"?>
<svg xmlns="http://www.w3.org/2000/svg" xmlns:xlink="http://www.w3.org/1999/xlink" width="200px" height="200px" viewBox="0 0 200 200" version="1.1">
<g id="surface1">
<path style=" stroke:none;fill-rule:evenodd;fill:rgb(0%,0%,0%);fill-opacity:1;" d="M 145.816406 119.945312 C 143.328125 118.703125 131.097656 112.683594 128.816406 111.851562 C 126.535156 111.019531 124.875 110.605469 123.21875 113.097656 C 121.558594 115.585938 116.789062 121.191406 115.339844 122.851562 C 113.886719 124.515625 112.4375 124.722656 109.949219 123.476562 C 107.460938 122.230469 99.441406 119.601562 89.9375 111.125 C 82.542969 104.527344 77.546875 96.378906 76.097656 93.890625 C 74.644531 91.398438 75.941406 90.050781 77.1875 88.8125 C 78.308594 87.695312 79.675781 85.90625 80.917969 84.453125 C 82.164062 83 82.578125 81.960938 83.40625 80.300781 C 84.238281 78.640625 83.824219 77.1875 83.199219 75.941406 C 82.578125 74.695312 77.601562 62.449219 75.527344 57.464844 C 73.507812 52.613281 71.457031 53.273438 69.929688 53.195312 C 68.480469 53.125 66.820312 53.109375 65.160156 53.109375 C 63.503906 53.109375 60.808594 53.730469 58.527344 56.222656 C 56.246094 58.710938 49.816406 64.730469 49.816406 76.976562 C 49.816406 89.226562 58.734375 101.058594 59.976562 102.71875 C 61.222656 104.378906 77.523438 129.511719 102.484375 140.289062 C 108.421875 142.851562 113.054688 144.382812 116.667969 145.53125 C 122.628906 147.425781 128.054688 147.15625 132.339844 146.515625 C 137.121094 145.804688 147.0625 140.496094 149.136719 134.6875 C 151.207031 128.871094 151.207031 123.890625 150.585938 122.851562 C 149.964844 121.816406 148.304688 121.191406 145.816406 119.945312 M 100.417969 181.9375 L 100.382812 181.9375 C 85.53125 181.929688 70.964844 177.941406 58.257812 170.398438 L 55.234375 168.605469 L 23.910156 176.824219 L 32.269531 146.28125 L 30.304688 143.148438 C 22.015625 129.96875 17.640625 114.738281 17.648438 99.101562 C 17.667969 53.464844 54.796875 16.339844 100.449219 16.339844 C 122.558594 16.347656 143.339844 24.964844 158.96875 40.613281 C 174.59375 56.257812 183.195312 77.050781 183.1875 99.167969 C 183.167969 144.804688 146.039062 181.9375 100.417969 181.9375 M 170.859375 28.722656 C 152.058594 9.902344 127.054688 -0.46875 100.417969 -0.480469 C 45.527344 -0.480469 0.855469 44.1875 0.835938 99.09375 C 0.828125 116.644531 5.414062 133.777344 14.128906 148.878906 L 0 200.480469 L 52.789062 186.632812 C 67.335938 194.566406 83.710938 198.75 100.378906 198.753906 L 100.417969 198.753906 C 155.300781 198.753906 199.976562 154.078125 200 99.171875 C 200.011719 72.566406 189.660156 47.546875 170.859375 28.722656 "/>
</g>
</svg>
