<?xml version="1.0" encoding="UTF-8"?>
<svg xmlns="http://www.w3.org/2000/svg" xmlns:xlink="http://www.w3.org/1999/xlink" width="200px" height="200px" viewBox="0 0 200 200" version="1.1">
<g id="surface1">
<path style=" stroke:none;fill-rule:nonzero;fill:rgb(0%,0%,0%);fill-opacity:1;" d="M 100 14.667969 C 76.824219 14.667969 73.917969 14.765625 64.816406 15.179688 C 55.734375 15.59375 49.53125 17.035156 44.101562 19.148438 C 38.492188 21.328125 33.734375 24.246094 28.988281 28.988281 C 24.246094 33.734375 21.328125 38.492188 19.144531 44.101562 C 17.035156 49.53125 15.59375 55.734375 15.179688 64.816406 C 14.765625 73.917969 14.667969 76.824219 14.667969 100 C 14.667969 123.175781 14.765625 126.082031 15.179688 135.183594 C 15.59375 144.265625 17.035156 150.46875 19.144531 155.894531 C 21.328125 161.507812 24.246094 166.265625 28.988281 171.011719 C 33.734375 175.753906 38.492188 178.671875 44.101562 180.851562 C 49.53125 182.960938 55.734375 184.40625 64.816406 184.820312 C 73.917969 185.234375 76.824219 185.332031 100 185.332031 C 123.175781 185.332031 126.082031 185.234375 135.183594 184.820312 C 144.265625 184.40625 150.46875 182.960938 155.894531 180.851562 C 161.507812 178.671875 166.265625 175.753906 171.011719 171.011719 C 175.753906 166.265625 178.671875 161.507812 180.851562 155.894531 C 182.960938 150.46875 184.40625 144.265625 184.820312 135.183594 C 185.234375 126.082031 185.332031 123.175781 185.332031 100 C 185.332031 76.824219 185.234375 73.917969 184.820312 64.816406 C 184.40625 55.734375 182.960938 49.53125 180.851562 44.101562 C 178.671875 38.492188 175.753906 33.734375 171.011719 28.988281 C 166.265625 24.246094 161.507812 21.328125 155.894531 19.148438 C 150.46875 17.035156 144.265625 15.59375 135.183594 15.179688 C 126.082031 14.765625 123.175781 14.667969 100 14.667969 Z M 100 30.042969 C 122.785156 30.042969 125.484375 30.128906 134.480469 30.539062 C 142.800781 30.917969 147.320312 32.308594 150.328125 33.476562 C 154.308594 35.027344 157.152344 36.875 160.136719 39.859375 C 163.125 42.847656 164.972656 45.691406 166.523438 49.671875 C 167.691406 52.679688 169.082031 57.199219 169.460938 65.519531 C 169.871094 74.515625 169.957031 77.214844 169.957031 100 C 169.957031 122.785156 169.871094 125.484375 169.460938 134.480469 C 169.082031 142.800781 167.691406 147.320312 166.523438 150.328125 C 164.972656 154.308594 163.125 157.152344 160.136719 160.136719 C 157.152344 163.125 154.308594 164.972656 150.328125 166.523438 C 147.320312 167.691406 142.800781 169.082031 134.480469 169.460938 C 125.484375 169.871094 122.785156 169.957031 100 169.957031 C 77.214844 169.957031 74.515625 169.871094 65.519531 169.460938 C 57.199219 169.082031 52.679688 167.691406 49.671875 166.523438 C 45.691406 164.972656 42.847656 163.125 39.859375 160.136719 C 36.875 157.152344 35.023438 154.308594 33.476562 150.328125 C 32.308594 147.320312 30.917969 142.800781 30.539062 134.480469 C 30.128906 125.484375 30.042969 122.785156 30.042969 100 C 30.042969 77.214844 30.128906 74.515625 30.539062 65.519531 C 30.917969 57.199219 32.308594 52.679688 33.476562 49.671875 C 35.023438 45.691406 36.875 42.847656 39.859375 39.859375 C 42.847656 36.875 45.691406 35.027344 49.671875 33.476562 C 52.679688 32.308594 57.199219 30.917969 65.519531 30.539062 C 74.515625 30.128906 77.214844 30.042969 100 30.042969 Z M 100 30.042969 "/>
<path style=" stroke:none;fill-rule:nonzero;fill:rgb(1.176471%,1.568628%,1.568628%);fill-opacity:1;" d="M 100 128.445312 C 84.289062 128.445312 71.554688 115.710938 71.554688 100 C 71.554688 84.289062 84.289062 71.554688 100 71.554688 C 115.710938 71.554688 128.445312 84.289062 128.445312 100 C 128.445312 115.710938 115.710938 128.445312 100 128.445312 Z M 100 56.179688 C 75.796875 56.179688 56.179688 75.796875 56.179688 100 C 56.179688 124.199219 75.796875 143.820312 100 143.820312 C 124.199219 143.820312 143.820312 124.199219 143.820312 100 C 143.820312 75.796875 124.199219 56.179688 100 56.179688 Z M 100 56.179688 "/>
<path style=" stroke:none;fill-rule:nonzero;fill:rgb(1.176471%,1.568628%,1.568628%);fill-opacity:1;" d="M 155.789062 54.449219 C 155.789062 60.105469 151.207031 64.6875 145.550781 64.6875 C 139.894531 64.6875 135.3125 60.105469 135.3125 54.449219 C 135.3125 48.792969 139.894531 44.210938 145.550781 44.210938 C 151.207031 44.210938 155.789062 48.792969 155.789062 54.449219 Z M 155.789062 54.449219 "/>
</g>
</svg>
